<svg xmlns="http://www.w3.org/2000/svg" viewBox="0 0 600 600" width="600" height="600">
  <title>Sober — Traditional bonsai, day 060</title>
  <desc>Anchor frame for the Traditional bonsai style. Pot baseline y=460. Generated from the parametric builder.</desc>
  
  <g id="pot">
    <defs>
      <linearGradient id="potShade" x1="0" y1="0" x2="1" y2="0">
        <stop offset="0" stop-color="#5C402A"></stop>
        <stop offset="0.45" stop-color="#3B2A1C"></stop>
        <stop offset="1" stop-color="#3B2A1C"></stop>
      </linearGradient>
      <linearGradient id="potBody" x1="0" y1="0" x2="0" y2="1">
        <stop offset="0" stop-color="#5C402A"></stop>
        <stop offset="1" stop-color="#3B2A1C"></stop>
      </linearGradient>
    </defs>
    
    <path d="M170 415&#xA;             L184 460&#xA;             L416 460&#xA;             L430 415 Z" fill="url(#potBody)"></path>
    
    <path d="M300 415&#xA;             L416 460&#xA;             L430 415 Z" fill="#3B2A1C" opacity="0.55"></path>
    
    <ellipse cx="300" cy="413" rx="130" ry="9" fill="#2C1F14"></ellipse>
    <ellipse cx="300" cy="411" rx="130" ry="8" fill="#5C402A"></ellipse>
    
    <ellipse cx="300" cy="412" rx="124" ry="6.5" fill="#3A2A1C"></ellipse>
    <ellipse cx="300" cy="412.5" rx="122" ry="5.5" fill="#221710"></ellipse>
    
    <circle cx="240" cy="412" r="1.8" fill="#6B4A2E" opacity="0.55"></circle>
    <circle cx="285" cy="413" r="1.2" fill="#A07B52" opacity="0.4"></circle>
    <circle cx="328" cy="412" r="1.6" fill="#6B4A2E" opacity="0.5"></circle>
    <circle cx="358" cy="413" r="1.2" fill="#A07B52" opacity="0.35"></circle>
    <circle cx="210" cy="413" r="1.4" fill="#A07B52" opacity="0.4"></circle>
  </g>
  <g id="roots" opacity="0.7">
      <path d="M280 411 Q272 408 266 410 Q272 412 282 412" fill="#6B4A2E"></path>
      <path d="M295 411 Q288 407 282 409 Q290 412 296 412" fill="#3E2A1B" opacity="0.7"></path>
      <path d="M312 411 Q322 408 330 410 Q322 412 312 412" fill="#6B4A2E"></path>
      <path d="M322 411 Q332 407 338 409 Q332 412 320 412" fill="#3E2A1B" opacity="0.7"></path>
    </g><g id="moss" opacity="0.5725"><ellipse cx="292" cy="408" rx="5" ry="2" fill="#9DB16E"></ellipse><ellipse cx="302" cy="406" rx="6" ry="2.4" fill="#9DB16E"></ellipse><ellipse cx="296" cy="402" rx="4" ry="1.8" fill="#9DB16E"></ellipse></g>
  
  <defs>
    <linearGradient id="trunkGrad" x1="0" y1="0" x2="1" y2="0">
      <stop offset="0" stop-color="#A07B52"></stop>
      <stop offset="0.45" stop-color="#6B4A2E"></stop>
      <stop offset="1" stop-color="#3E2A1B"></stop>
    </linearGradient>
  </defs>
  <g id="branches"><path d="M 279.336 307.7&#xA;                          Q 261.336 297.7 241.336 281.7" stroke="#6B4A2E" stroke-width="5.1983999999999995" stroke-linecap="round" fill="none"></path><path d="M 324.664 254.55&#xA;                          Q 344.664 236.55 362.664 220.55" stroke="#6B4A2E" stroke-width="4.043200000000001" stroke-linecap="round" fill="none"></path></g>
  <g id="trunk">
    <path d="&#xA;    M 285.56 410&#xA;    Q 273.336 356.85 277.336 303.7&#xA;    Q 307.336 250.55 308.39 197.4&#xA;    L 315.61 197.4&#xA;    Q 328.664 250.55 326.664 303.7&#xA;    Q 298.664 356.85 314.44 410&#xA;    Z&#xA;  " fill="url(#trunkGrad)"></path>
    <g id="gnarl" opacity="0.64">
      <ellipse cx="288.5992" cy="307.7" rx="9.5304" ry="3.6" fill="#3E2A1B" opacity="0.55"></ellipse>
      <ellipse cx="315.4008" cy="250.55" rx="7.7976" ry="3" fill="#3E2A1B" opacity="0.5"></ellipse>
      <ellipse cx="281.448" cy="362.85" rx="10.107999999999999" ry="3.2" fill="#3E2A1B" opacity="0.45"></ellipse>
    </g>
  </g><g id="leaves">
    <g id="cluster-31" transform="translate(312.00 189.40)">
      <path d="M 56.72 -1.38 Q 62.16 8.33 57.05 18.16 Q 51.94 28.00 45.65 37.71 Q 39.35 47.42 26.20 49.78 Q 13.05 52.15 -0.90 53.72 Q -14.86 55.30 -24.70 47.02 Q -34.54 38.74 -41.65 29.45 Q -48.76 20.16 -53.23 8.17 Q -57.71 -3.81 -49.77 -14.75 Q -41.84 -25.68 -29.69 -33.59 Q -17.55 -41.49 -1.87 -43.86 Q 13.81 -46.23 27.87 -40.36 Q 41.94 -34.48 46.61 -22.78 Q 51.28 -11.08 56.72 -1.38 Z" fill="#2F5E45" opacity="0.78"></path>
      <path d="M 66.52 22.94 Q 66.89 26.56 64.89 28.33 Q 62.89 30.11 60.31 32.28 Q 57.74 34.45 56.22 31.60 Q 54.70 28.74 53.85 26.19 Q 53.00 23.63 55.51 21.69 Q 58.02 19.75 62.08 19.54 Q 66.15 19.33 66.52 22.94 Z" fill="#2F5E45" opacity="0.55"></path><path d="M -37.47 38.50 Q -36.03 40.12 -37.63 41.56 Q -39.22 43.01 -41.23 44.46 Q -43.25 45.91 -44.63 43.93 Q -46.01 41.95 -46.04 40.11 Q -46.07 38.26 -44.45 37.09 Q -42.84 35.93 -40.87 36.40 Q -38.90 36.87 -37.47 38.50 Z" fill="#2F5E45" opacity="0.55"></path><path d="M -18.25 -41.83 Q -17.42 -39.25 -18.99 -37.50 Q -20.56 -35.76 -22.70 -35.16 Q -24.84 -34.55 -27.22 -35.61 Q -29.61 -36.66 -30.31 -39.55 Q -31.02 -42.44 -28.15 -44.08 Q -25.29 -45.71 -22.18 -45.06 Q -19.08 -44.40 -18.25 -41.83 Z" fill="#2F5E45" opacity="0.55"></path>
      <path d="M 48.93 -9.24 Q 54.45 -0.25 57.46 12.22 Q 60.47 24.70 48.83 32.18 Q 37.19 39.67 26.74 49.78 Q 16.29 59.89 1.47 55.72 Q -13.34 51.55 -21.99 42.48 Q -30.64 33.41 -40.83 27.42 Q -51.02 21.42 -60.49 10.87 Q -69.96 0.32 -55.58 -8.25 Q -41.20 -16.83 -43.11 -32.42 Q -45.02 -48.01 -29.43 -49.44 Q -13.84 -50.87 -0.02 -52.09 Q 13.80 -53.32 25.05 -46.45 Q 36.31 -39.59 39.86 -28.91 Q 43.42 -18.23 48.93 -9.24 Z" fill="#519E73" opacity="0.94"></path>
      <path d="M -11.46 -14.10 Q -10.78 -8.07 -11.03 -1.73 Q -11.28 4.61 -18.24 5.62 Q -25.20 6.64 -31.44 6.76 Q -37.68 6.88 -43.38 2.84 Q -49.09 -1.19 -46.10 -7.09 Q -43.11 -12.99 -39.39 -16.45 Q -35.67 -19.90 -29.92 -23.96 Q -24.17 -28.03 -18.16 -24.07 Q -12.14 -20.12 -11.46 -14.10 Z" fill="#7BC68C" opacity="0.7"></path><path d="M 1.67 -22.18 Q 6.35 -18.88 2.90 -14.65 Q -0.56 -10.42 -5.10 -9.27 Q -9.65 -8.13 -13.59 -9.01 Q -17.52 -9.89 -20.91 -12.33 Q -24.29 -14.77 -22.47 -18.28 Q -20.64 -21.79 -20.53 -27.08 Q -20.41 -32.37 -15.00 -31.17 Q -9.58 -29.98 -6.30 -27.73 Q -3.01 -25.48 1.67 -22.18 Z" fill="#7BC68C" opacity="0.7"></path><path d="M 21.25 -26.48 Q 21.01 -21.60 21.37 -16.62 Q 21.73 -11.65 16.43 -10.04 Q 11.13 -8.43 5.61 -8.41 Q 0.08 -8.38 -2.31 -12.82 Q -4.71 -17.25 -4.08 -21.39 Q -3.45 -25.53 -1.87 -30.45 Q -0.29 -35.38 5.45 -35.22 Q 11.20 -35.07 16.34 -33.21 Q 21.49 -31.36 21.25 -26.48 Z" fill="#7BC68C" opacity="0.7"></path><path d="M 33.45 -13.32 Q 37.87 -10.18 33.03 -7.36 Q 28.19 -4.54 25.31 -3.04 Q 22.42 -1.53 17.65 0.26 Q 12.88 2.05 11.58 -2.36 Q 10.28 -6.76 7.77 -11.01 Q 5.25 -15.25 8.74 -19.35 Q 12.22 -23.44 17.34 -21.24 Q 22.46 -19.05 25.74 -17.75 Q 29.02 -16.45 33.45 -13.32 Z" fill="#7BC68C" opacity="0.7"></path><path d="M 38.59 2.81 Q 39.28 6.59 38.92 10.61 Q 38.55 14.64 34.20 15.61 Q 29.85 16.59 25.27 17.19 Q 20.70 17.80 20.49 13.44 Q 20.28 9.08 18.23 5.91 Q 16.18 2.75 19.70 1.02 Q 23.21 -0.70 26.77 -3.27 Q 30.32 -5.83 34.11 -3.40 Q 37.89 -0.97 38.59 2.81 Z" fill="#7BC68C" opacity="0.7"></path>
      <path d="M -13.38 -26.86 Q -11.02 -23.60 -12.60 -19.59 Q -14.19 -15.59 -18.40 -14.00 Q -22.61 -12.40 -25.75 -15.02 Q -28.88 -17.65 -31.74 -20.62 Q -34.59 -23.60 -31.61 -26.46 Q -28.63 -29.32 -25.62 -32.00 Q -22.61 -34.68 -19.18 -32.40 Q -15.74 -30.13 -13.38 -26.86 Z" fill="#A9D4A8" opacity="0.82"></path><path d="M -2.06 -33.87 Q -0.49 -31.40 -2.09 -28.96 Q -3.70 -26.51 -6.26 -25.36 Q -8.83 -24.20 -11.45 -25.32 Q -14.06 -26.43 -14.12 -28.91 Q -14.19 -31.40 -14.26 -34.01 Q -14.33 -36.62 -11.58 -37.59 Q -8.83 -38.56 -6.23 -37.45 Q -3.62 -36.34 -2.06 -33.87 Z" fill="#A9D4A8" opacity="0.82"></path><path d="M 15.48 -28.44 Q 17.19 -26.09 16.22 -23.04 Q 15.25 -19.98 12.03 -19.50 Q 8.82 -19.02 5.90 -19.78 Q 2.97 -20.53 1.14 -23.31 Q -0.68 -26.09 1.07 -28.94 Q 2.82 -31.79 5.82 -32.15 Q 8.82 -32.52 11.29 -31.65 Q 13.77 -30.79 15.48 -28.44 Z" fill="#A9D4A8" opacity="0.82"></path><path d="M 31.84 -25.66 Q 32.89 -22.80 31.61 -20.16 Q 30.34 -17.52 27.56 -15.83 Q 24.78 -14.13 22.20 -16.01 Q 19.62 -17.90 17.16 -20.35 Q 14.70 -22.80 17.53 -24.90 Q 20.37 -26.99 22.58 -29.77 Q 24.78 -32.55 27.79 -30.53 Q 30.79 -28.51 31.84 -25.66 Z" fill="#A9D4A8" opacity="0.82"></path>
    </g>
    <g id="cluster-32" transform="translate(241.34 281.70)">
      <path d="M 48.63 -6.81 Q 55.29 1.18 58.59 12.43 Q 61.88 23.67 54.29 33.90 Q 46.70 44.13 31.48 42.85 Q 16.26 41.57 5.32 43.53 Q -5.62 45.50 -16.63 41.95 Q -27.64 38.41 -30.26 28.94 Q -32.88 19.47 -35.40 11.44 Q -37.92 3.41 -33.74 -4.18 Q -29.56 -11.77 -26.25 -23.22 Q -22.93 -34.67 -9.41 -32.79 Q 4.11 -30.91 16.79 -32.00 Q 29.47 -33.09 35.72 -23.95 Q 41.97 -14.80 48.63 -6.81 Z" fill="#2F5E45" opacity="0.78"></path>
      <path d="M 52.87 19.70 Q 53.10 21.75 52.73 23.65 Q 52.37 25.55 50.33 25.05 Q 48.29 24.55 46.44 24.11 Q 44.58 23.67 44.19 21.58 Q 43.80 19.50 45.73 17.98 Q 47.66 16.47 50.15 17.06 Q 52.64 17.65 52.87 19.70 Z" fill="#2F5E45" opacity="0.55"></path><path d="M -26.22 27.63 Q -26.18 30.57 -26.66 33.02 Q -27.13 35.47 -29.85 35.18 Q -32.56 34.89 -34.12 33.64 Q -35.67 32.40 -37.21 29.91 Q -38.75 27.42 -35.85 26.06 Q -32.96 24.70 -29.60 24.69 Q -26.25 24.69 -26.22 27.63 Z" fill="#2F5E45" opacity="0.55"></path><path d="M -16.45 -36.09 Q -15.05 -34.42 -16.10 -32.34 Q -17.16 -30.27 -19.50 -30.34 Q -21.84 -30.42 -23.21 -31.60 Q -24.58 -32.79 -24.72 -34.48 Q -24.86 -36.16 -23.47 -37.75 Q -22.08 -39.34 -19.97 -38.56 Q -17.85 -37.77 -16.45 -36.09 Z" fill="#2F5E45" opacity="0.55"></path>
      <path d="M 42.42 -13.43 Q 40.03 -3.39 40.51 4.75 Q 40.99 12.90 36.88 20.94 Q 32.77 28.99 22.05 29.08 Q 11.33 29.17 2.63 35.13 Q -6.07 41.10 -16.59 38.53 Q -27.10 35.96 -37.88 30.72 Q -48.65 25.47 -45.96 14.57 Q -43.26 3.66 -45.37 -5.64 Q -47.48 -14.94 -41.93 -23.56 Q -36.39 -32.19 -24.88 -33.31 Q -13.38 -34.43 -3.79 -36.82 Q 5.79 -39.21 12.72 -32.65 Q 19.66 -26.08 32.24 -24.77 Q 44.82 -23.47 42.42 -13.43 Z" fill="#7BC68C" opacity="0.94"></path>
      <path d="M -5.66 -8.35 Q -1.89 -5.80 -4.42 -2.30 Q -6.94 1.20 -10.31 4.16 Q -13.67 7.13 -18.05 5.52 Q -22.43 3.91 -25.85 1.20 Q -29.27 -1.51 -27.66 -5.27 Q -26.05 -9.02 -24.99 -13.42 Q -23.92 -17.83 -18.75 -18.53 Q -13.57 -19.23 -11.50 -15.07 Q -9.44 -10.91 -5.66 -8.35 Z" fill="#A9D4A8" opacity="0.7"></path><path d="M -0.93 -19.61 Q 2.33 -17.03 -0.12 -13.85 Q -2.58 -10.67 -5.62 -7.85 Q -8.66 -5.04 -13.24 -5.73 Q -17.82 -6.42 -18.70 -10.32 Q -19.58 -14.23 -21.73 -17.74 Q -23.88 -21.25 -21.28 -25.12 Q -18.68 -28.99 -13.60 -29.37 Q -8.52 -29.74 -6.36 -25.96 Q -4.20 -22.18 -0.93 -19.61 Z" fill="#A9D4A8" opacity="0.7"></path><path d="M 14.73 -18.31 Q 17.86 -16.32 14.82 -14.26 Q 11.79 -12.21 10.05 -9.21 Q 8.32 -6.21 5.62 -8.60 Q 2.92 -11.00 0.56 -12.33 Q -1.80 -13.66 -1.29 -16.16 Q -0.79 -18.66 1.23 -19.90 Q 3.25 -21.13 5.37 -21.67 Q 7.49 -22.21 9.54 -21.25 Q 11.59 -20.29 14.73 -18.31 Z" fill="#A9D4A8" opacity="0.7"></path><path d="M 38.62 -13.70 Q 43.17 -10.37 39.95 -6.03 Q 36.74 -1.70 32.21 0.13 Q 27.68 1.96 22.34 2.24 Q 17.00 2.52 15.82 -2.18 Q 14.65 -6.89 12.03 -11.23 Q 9.41 -15.56 13.92 -18.29 Q 18.43 -21.03 23.18 -22.49 Q 27.93 -23.96 31.01 -20.49 Q 34.08 -17.02 38.62 -13.70 Z" fill="#A9D4A8" opacity="0.7"></path><path d="M 27.95 -0.40 Q 29.74 3.05 28.31 6.77 Q 26.88 10.49 23.28 13.50 Q 19.67 16.50 15.84 13.68 Q 12.02 10.86 9.31 8.67 Q 6.60 6.47 5.24 2.60 Q 3.87 -1.26 8.21 -2.59 Q 12.56 -3.92 15.57 -4.40 Q 18.59 -4.88 22.38 -4.37 Q 26.16 -3.85 27.95 -0.40 Z" fill="#A9D4A8" opacity="0.7"></path>
      <path d="M -13.83 -22.53 Q -11.44 -20.39 -13.60 -18.04 Q -15.77 -15.70 -18.24 -14.11 Q -20.71 -12.53 -23.96 -13.38 Q -27.21 -14.22 -28.14 -17.31 Q -29.08 -20.39 -28.38 -23.70 Q -27.68 -27.02 -24.20 -28.32 Q -20.71 -29.62 -18.46 -27.14 Q -16.21 -24.66 -13.83 -22.53 Z" fill="#C7E5B8" opacity="0.82"></path><path d="M -1.08 -26.80 Q 0.02 -24.60 -1.44 -22.75 Q -2.91 -20.89 -4.86 -19.35 Q -6.81 -17.81 -9.94 -18.23 Q -13.08 -18.64 -14.08 -21.62 Q -15.08 -24.60 -13.13 -26.68 Q -11.18 -28.76 -9.00 -30.79 Q -6.81 -32.82 -4.49 -30.91 Q -2.17 -29.01 -1.08 -26.80 Z" fill="#C7E5B8" opacity="0.82"></path><path d="M 14.70 -25.35 Q 16.70 -23.34 15.00 -21.06 Q 13.29 -18.77 10.88 -18.66 Q 8.47 -18.55 5.99 -18.59 Q 3.51 -18.63 3.58 -20.99 Q 3.66 -23.34 4.07 -25.24 Q 4.47 -27.14 6.47 -28.27 Q 8.47 -29.40 10.59 -28.38 Q 12.70 -27.36 14.70 -25.35 Z" fill="#C7E5B8" opacity="0.82"></path><path d="M 25.91 -20.83 Q 26.67 -18.98 26.42 -16.64 Q 26.16 -14.31 23.70 -12.80 Q 21.24 -11.29 18.78 -12.79 Q 16.31 -14.29 16.38 -16.64 Q 16.45 -18.98 16.59 -21.13 Q 16.72 -23.28 18.98 -23.68 Q 21.24 -24.09 23.19 -23.39 Q 25.14 -22.68 25.91 -20.83 Z" fill="#C7E5B8" opacity="0.82"></path>
    </g>
    <g id="cluster-33" transform="translate(362.66 220.55)">
      <path d="M 59.16 1.90 Q 61.00 12.89 49.02 19.19 Q 37.03 25.50 30.06 31.06 Q 23.09 36.61 13.35 44.69 Q 3.60 52.76 -9.45 49.89 Q -22.49 47.01 -31.63 39.09 Q -40.77 31.16 -37.67 20.46 Q -34.56 9.76 -39.78 -0.02 Q -45.00 -9.81 -36.98 -17.78 Q -28.97 -25.76 -16.73 -26.04 Q -4.50 -26.32 6.75 -30.65 Q 18.00 -34.98 30.39 -31.33 Q 42.78 -27.67 50.05 -18.38 Q 57.32 -9.09 59.16 1.90 Z" fill="#2F5E45" opacity="0.78"></path>
      <path d="M 46.00 17.63 Q 46.41 19.13 46.73 21.46 Q 47.05 23.79 44.31 24.15 Q 41.57 24.52 40.55 22.56 Q 39.53 20.61 38.98 18.89 Q 38.42 17.18 39.92 15.17 Q 41.42 13.16 43.50 14.65 Q 45.59 16.13 46.00 17.63 Z" fill="#2F5E45" opacity="0.55"></path><path d="M -25.38 27.23 Q -23.90 29.10 -25.78 30.51 Q -27.66 31.93 -29.48 32.75 Q -31.30 33.58 -33.46 32.52 Q -35.62 31.46 -35.41 29.19 Q -35.21 26.91 -33.40 25.18 Q -31.59 23.46 -29.22 24.41 Q -26.85 25.37 -25.38 27.23 Z" fill="#2F5E45" opacity="0.55"></path><path d="M -14.81 -31.53 Q -13.63 -30.25 -13.77 -27.80 Q -13.92 -25.35 -16.58 -25.86 Q -19.25 -26.36 -21.08 -27.30 Q -22.92 -28.23 -23.11 -30.33 Q -23.31 -32.44 -21.46 -34.00 Q -19.61 -35.57 -17.80 -34.19 Q -15.99 -32.81 -14.81 -31.53 Z" fill="#2F5E45" opacity="0.55"></path>
      <path d="M 40.91 -5.62 Q 36.54 3.06 36.31 10.95 Q 36.08 18.84 28.25 22.94 Q 20.43 27.03 13.35 34.55 Q 6.27 42.07 -4.48 40.70 Q -15.22 39.33 -25.78 35.78 Q -36.34 32.22 -40.98 23.31 Q -45.61 14.40 -46.18 5.25 Q -46.75 -3.91 -39.32 -10.28 Q -31.89 -16.65 -27.58 -23.73 Q -23.27 -30.80 -13.69 -29.21 Q -4.12 -27.62 4.04 -29.57 Q 12.20 -31.51 17.63 -25.98 Q 23.07 -20.46 34.17 -17.38 Q 45.28 -14.29 40.91 -5.62 Z" fill="#519E73" opacity="0.94"></path>
      <path d="M -9.30 -9.02 Q -8.85 -5.73 -11.06 -3.77 Q -13.28 -1.80 -15.07 0.34 Q -16.86 2.49 -20.34 2.55 Q -23.82 2.60 -26.38 0.15 Q -28.94 -2.30 -28.65 -5.63 Q -28.35 -8.96 -25.92 -11.26 Q -23.49 -13.55 -19.95 -14.90 Q -16.41 -16.24 -13.09 -14.28 Q -9.76 -12.31 -9.30 -9.02 Z" fill="#7BC68C" opacity="0.7"></path><path d="M -0.63 -18.09 Q 0.55 -15.12 -1.50 -12.81 Q -3.54 -10.50 -5.73 -8.35 Q -7.92 -6.20 -11.68 -6.17 Q -15.43 -6.13 -16.90 -9.20 Q -18.36 -12.27 -19.19 -15.39 Q -20.01 -18.51 -16.75 -19.80 Q -13.50 -21.09 -10.89 -21.62 Q -8.29 -22.15 -5.05 -21.60 Q -1.81 -21.06 -0.63 -18.09 Z" fill="#7BC68C" opacity="0.7"></path><path d="M 16.57 -19.79 Q 15.86 -15.57 15.97 -11.81 Q 16.08 -8.04 12.39 -5.23 Q 8.69 -2.41 4.18 -3.96 Q -0.34 -5.51 -2.30 -8.84 Q -4.26 -12.17 -4.37 -15.60 Q -4.47 -19.04 -2.56 -22.58 Q -0.65 -26.12 3.62 -25.38 Q 7.89 -24.64 12.58 -24.32 Q 17.28 -24.00 16.57 -19.79 Z" fill="#7BC68C" opacity="0.7"></path><path d="M 34.92 -12.74 Q 38.50 -9.26 36.74 -4.40 Q 34.99 0.46 29.78 1.82 Q 24.56 3.18 20.69 1.11 Q 16.81 -0.97 12.28 -2.76 Q 7.74 -4.54 9.75 -8.60 Q 11.75 -12.66 14.17 -15.27 Q 16.60 -17.88 20.63 -20.04 Q 24.66 -22.19 28.01 -19.21 Q 31.35 -16.22 34.92 -12.74 Z" fill="#7BC68C" opacity="0.7"></path><path d="M 24.11 -1.76 Q 22.88 2.33 22.54 5.23 Q 22.20 8.14 19.39 10.52 Q 16.58 12.90 12.24 12.77 Q 7.90 12.64 6.55 9.01 Q 5.19 5.38 5.77 2.52 Q 6.35 -0.34 6.71 -4.82 Q 7.06 -9.29 11.92 -9.24 Q 16.77 -9.20 21.05 -7.52 Q 25.33 -5.84 24.11 -1.76 Z" fill="#7BC68C" opacity="0.7"></path>
      <path d="M -10.98 -20.11 Q -10.50 -17.55 -10.81 -14.83 Q -11.12 -12.10 -13.98 -11.39 Q -16.85 -10.67 -19.62 -11.48 Q -22.38 -12.29 -22.54 -14.92 Q -22.70 -17.55 -22.26 -19.91 Q -21.82 -22.27 -19.33 -23.39 Q -16.85 -24.51 -14.15 -23.59 Q -11.45 -22.68 -10.98 -20.11 Z" fill="#A9D4A8" opacity="0.82"></path><path d="M 0.55 -22.99 Q 3.12 -21.25 1.74 -18.39 Q 0.36 -15.53 -2.65 -14.54 Q -5.66 -13.55 -8.03 -15.15 Q -10.40 -16.75 -12.27 -19.00 Q -14.13 -21.25 -11.99 -23.24 Q -9.85 -25.23 -7.76 -26.06 Q -5.66 -26.89 -3.84 -25.81 Q -2.01 -24.72 0.55 -22.99 Z" fill="#A9D4A8" opacity="0.82"></path><path d="M 13.63 -23.89 Q 14.52 -21.56 13.01 -19.82 Q 11.50 -18.08 9.67 -17.81 Q 7.84 -17.54 6.39 -18.17 Q 4.94 -18.80 3.15 -20.18 Q 1.36 -21.56 2.27 -23.77 Q 3.19 -25.98 5.51 -26.53 Q 7.84 -27.09 10.30 -26.65 Q 12.75 -26.22 13.63 -23.89 Z" fill="#A9D4A8" opacity="0.82"></path><path d="M 25.93 -20.37 Q 26.19 -17.93 25.79 -15.63 Q 25.39 -13.33 22.97 -13.19 Q 20.55 -13.06 18.57 -13.62 Q 16.60 -14.18 14.70 -16.06 Q 12.80 -17.93 15.00 -19.53 Q 17.19 -21.12 18.87 -22.56 Q 20.55 -24.00 23.11 -23.40 Q 25.68 -22.81 25.93 -20.37 Z" fill="#A9D4A8" opacity="0.82"></path>
    </g>
    <g id="cluster-34" transform="translate(265.34 299.70)">
      <path d="M 32.19 -1.01 Q 36.09 4.35 31.86 9.58 Q 27.64 14.81 27.52 23.58 Q 27.40 32.35 17.39 30.46 Q 7.38 28.56 -0.38 29.74 Q -8.14 30.92 -15.99 28.05 Q -23.84 25.17 -24.72 18.09 Q -25.60 11.01 -30.77 4.17 Q -35.94 -2.67 -29.40 -8.20 Q -22.86 -13.73 -15.65 -16.71 Q -8.44 -19.69 -0.54 -22.81 Q 7.36 -25.93 14.33 -21.57 Q 21.30 -17.22 24.79 -11.79 Q 28.29 -6.36 32.19 -1.01 Z" fill="#2F5E45" opacity="0.78"></path>
      <path d="M 36.55 13.66 Q 37.43 14.87 36.63 16.18 Q 35.83 17.49 34.31 17.64 Q 32.78 17.79 31.26 17.15 Q 29.75 16.51 29.90 14.94 Q 30.06 13.37 31.30 12.20 Q 32.54 11.03 34.11 11.73 Q 35.67 12.44 36.55 13.66 Z" fill="#2F5E45" opacity="0.55"></path><path d="M -19.27 19.97 Q -18.78 21.15 -19.24 22.36 Q -19.69 23.58 -21.19 24.02 Q -22.68 24.46 -23.90 23.52 Q -25.13 22.57 -24.56 21.39 Q -24.00 20.21 -23.31 19.16 Q -22.62 18.10 -21.19 18.45 Q -19.77 18.80 -19.27 19.97 Z" fill="#2F5E45" opacity="0.55"></path><path d="M -9.85 -22.43 Q -8.92 -21.28 -10.03 -20.33 Q -11.13 -19.38 -12.25 -19.23 Q -13.37 -19.07 -15.37 -19.19 Q -17.36 -19.31 -17.36 -21.28 Q -17.36 -23.25 -15.38 -23.42 Q -13.40 -23.60 -12.09 -23.59 Q -10.77 -23.58 -9.85 -22.43 Z" fill="#2F5E45" opacity="0.55"></path>
      <path d="M 31.15 -7.05 Q 29.84 -0.28 32.68 7.02 Q 35.52 14.31 25.94 15.78 Q 16.36 17.26 12.03 22.46 Q 7.71 27.66 1.36 23.72 Q -4.99 19.78 -13.32 21.82 Q -21.64 23.87 -25.76 18.29 Q -29.87 12.71 -31.25 6.51 Q -32.64 0.30 -30.67 -5.63 Q -28.70 -11.56 -24.94 -16.94 Q -21.17 -22.33 -14.58 -25.52 Q -8.00 -28.72 -0.45 -28.45 Q 7.11 -28.18 12.10 -23.51 Q 17.09 -18.85 24.77 -16.33 Q 32.45 -13.81 31.15 -7.05 Z" fill="#519E73" opacity="0.94"></path>
      <path d="M -4.26 -6.42 Q -2.57 -4.07 -4.20 -1.67 Q -5.83 0.72 -8.14 2.73 Q -10.45 4.74 -12.76 2.59 Q -15.07 0.44 -16.75 -0.79 Q -18.44 -2.02 -18.57 -4.11 Q -18.70 -6.21 -17.81 -8.84 Q -16.92 -11.47 -13.98 -10.69 Q -11.03 -9.91 -8.49 -9.34 Q -5.95 -8.77 -4.26 -6.42 Z" fill="#7BC68C" opacity="0.7"></path><path d="M 0.73 -13.72 Q 3.14 -11.54 2.11 -8.32 Q 1.08 -5.10 -2.54 -5.04 Q -6.16 -4.98 -9.65 -3.82 Q -13.14 -2.67 -13.78 -5.96 Q -14.41 -9.26 -15.86 -12.01 Q -17.31 -14.77 -14.88 -17.06 Q -12.46 -19.35 -8.97 -20.46 Q -5.49 -21.57 -3.59 -18.73 Q -1.69 -15.89 0.73 -13.72 Z" fill="#7BC68C" opacity="0.7"></path><path d="M 11.23 -16.40 Q 11.53 -14.57 12.28 -11.95 Q 13.03 -9.34 10.10 -9.19 Q 7.18 -9.04 4.79 -8.92 Q 2.40 -8.81 -0.32 -10.19 Q -3.04 -11.58 -1.15 -13.96 Q 0.73 -16.33 1.19 -18.91 Q 1.66 -21.49 4.51 -21.27 Q 7.36 -21.05 9.15 -19.64 Q 10.93 -18.22 11.23 -16.40 Z" fill="#7BC68C" opacity="0.7"></path><path d="M 20.18 -8.52 Q 21.26 -5.55 19.41 -3.16 Q 17.56 -0.77 15.01 -0.01 Q 12.46 0.75 9.83 0.74 Q 7.19 0.74 4.52 -0.87 Q 1.85 -2.48 3.12 -5.13 Q 4.38 -7.79 5.21 -10.71 Q 6.04 -13.63 9.14 -12.18 Q 12.24 -10.72 15.67 -11.10 Q 19.09 -11.49 20.18 -8.52 Z" fill="#7BC68C" opacity="0.7"></path><path d="M 17.91 -0.53 Q 17.88 1.97 17.30 4.00 Q 16.71 6.04 14.65 7.23 Q 12.59 8.42 10.45 7.55 Q 8.31 6.68 7.45 5.10 Q 6.59 3.52 6.55 1.96 Q 6.52 0.39 7.06 -1.73 Q 7.59 -3.85 10.02 -3.78 Q 12.44 -3.71 15.19 -3.37 Q 17.95 -3.03 17.91 -0.53 Z" fill="#7BC68C" opacity="0.7"></path>
      <path d="M -11.57 -15.82 Q -11.24 -14.36 -11.55 -12.88 Q -11.86 -11.40 -13.42 -10.83 Q -14.98 -10.26 -16.35 -11.01 Q -17.72 -11.77 -19.13 -13.06 Q -20.55 -14.36 -19.50 -16.01 Q -18.45 -17.66 -16.72 -18.28 Q -14.98 -18.89 -13.45 -18.09 Q -11.91 -17.28 -11.57 -15.82 Z" fill="#A9D4A8" opacity="0.82"></path><path d="M -0.70 -17.34 Q 0.18 -16.03 -0.88 -14.90 Q -1.94 -13.77 -3.13 -12.70 Q -4.33 -11.63 -5.67 -12.56 Q -7.01 -13.48 -8.16 -14.76 Q -9.31 -16.03 -8.75 -17.87 Q -8.20 -19.71 -6.26 -19.82 Q -4.33 -19.93 -2.95 -19.29 Q -1.57 -18.65 -0.70 -17.34 Z" fill="#A9D4A8" opacity="0.82"></path><path d="M 9.62 -16.40 Q 10.35 -14.54 9.37 -12.91 Q 8.40 -11.29 6.69 -10.33 Q 4.97 -9.38 3.71 -10.76 Q 2.45 -12.14 1.23 -13.34 Q 0.02 -14.54 0.53 -16.40 Q 1.05 -18.27 3.01 -18.02 Q 4.97 -17.76 6.93 -18.01 Q 8.88 -18.25 9.62 -16.40 Z" fill="#A9D4A8" opacity="0.82"></path><path d="M 18.21 -14.62 Q 18.36 -13.19 17.93 -12.03 Q 17.50 -10.86 16.28 -10.73 Q 15.05 -10.59 13.51 -10.43 Q 11.97 -10.26 11.96 -11.73 Q 11.94 -13.19 12.39 -14.25 Q 12.83 -15.31 13.94 -15.66 Q 15.05 -16.01 16.56 -16.03 Q 18.06 -16.04 18.21 -14.62 Z" fill="#A9D4A8" opacity="0.82"></path>
    </g>
    <g id="cluster-35" transform="translate(338.66 244.55)">
      <path d="M 32.14 -0.76 Q 36.82 4.46 31.69 9.49 Q 26.56 14.52 23.19 19.35 Q 19.81 24.18 13.08 24.90 Q 6.35 25.62 0.06 25.26 Q -6.22 24.90 -12.31 22.54 Q -18.39 20.19 -26.16 16.10 Q -33.92 12.01 -31.43 5.01 Q -28.93 -1.99 -26.87 -8.92 Q -24.81 -15.84 -16.66 -18.30 Q -8.50 -20.76 -1.03 -19.12 Q 6.43 -17.49 15.70 -19.46 Q 24.98 -21.43 26.22 -13.71 Q 27.46 -5.98 32.14 -0.76 Z" fill="#2F5E45" opacity="0.78"></path>
      <path d="M 32.96 11.43 Q 32.67 13.32 32.61 14.82 Q 32.54 16.31 30.84 16.31 Q 29.14 16.31 28.14 15.41 Q 27.15 14.51 26.97 13.25 Q 26.79 11.98 28.00 11.30 Q 29.21 10.63 31.23 10.08 Q 33.25 9.54 32.96 11.43 Z" fill="#2F5E45" opacity="0.55"></path><path d="M -19.91 19.83 Q -19.91 20.89 -19.81 22.05 Q -19.72 23.22 -20.97 22.91 Q -22.23 22.61 -23.07 22.21 Q -23.92 21.81 -23.79 20.94 Q -23.67 20.07 -22.96 19.57 Q -22.25 19.06 -21.08 18.92 Q -19.92 18.77 -19.91 19.83 Z" fill="#2F5E45" opacity="0.55"></path><path d="M -7.93 -21.76 Q -7.09 -19.94 -8.08 -18.28 Q -9.07 -16.63 -11.08 -16.12 Q -13.10 -15.61 -13.81 -17.23 Q -14.52 -18.84 -14.63 -19.99 Q -14.74 -21.13 -13.91 -22.66 Q -13.08 -24.20 -10.92 -23.89 Q -8.77 -23.58 -7.93 -21.76 Z" fill="#2F5E45" opacity="0.55"></path>
      <path d="M 22.67 -4.54 Q 23.46 -0.01 27.79 6.64 Q 32.12 13.29 23.15 14.28 Q 14.17 15.27 9.73 17.57 Q 5.28 19.86 -1.33 24.94 Q -7.95 30.02 -11.90 23.56 Q -15.85 17.11 -22.36 14.54 Q -28.87 11.97 -30.27 5.99 Q -31.68 0.01 -28.36 -5.17 Q -25.05 -10.36 -22.71 -16.15 Q -20.37 -21.94 -12.65 -20.23 Q -4.92 -18.51 1.22 -23.17 Q 7.37 -27.83 13.21 -24.20 Q 19.05 -20.57 20.46 -14.82 Q 21.88 -9.07 22.67 -4.54 Z" fill="#7BC68C" opacity="0.94"></path>
      <path d="M -8.05 -7.05 Q -8.37 -4.24 -8.60 -1.85 Q -8.84 0.54 -11.24 2.03 Q -13.65 3.52 -17.16 3.93 Q -20.67 4.33 -20.90 1.02 Q -21.13 -2.29 -23.27 -4.94 Q -25.40 -7.59 -23.00 -10.14 Q -20.60 -12.69 -17.14 -12.26 Q -13.69 -11.83 -10.71 -10.84 Q -7.74 -9.86 -8.05 -7.05 Z" fill="#A9D4A8" opacity="0.7"></path><path d="M -1.68 -13.96 Q -1.15 -11.84 -1.50 -9.58 Q -1.85 -7.32 -4.38 -7.20 Q -6.91 -7.09 -8.55 -7.64 Q -10.19 -8.18 -12.41 -8.90 Q -14.63 -9.62 -13.45 -11.45 Q -12.26 -13.29 -11.78 -15.26 Q -11.30 -17.23 -9.00 -17.45 Q -6.70 -17.67 -4.46 -16.88 Q -2.22 -16.09 -1.68 -13.96 Z" fill="#A9D4A8" opacity="0.7"></path><path d="M 12.53 -16.32 Q 12.63 -13.81 11.17 -12.33 Q 9.71 -10.85 8.45 -8.74 Q 7.19 -6.64 5.30 -8.37 Q 3.41 -10.10 0.52 -10.62 Q -2.37 -11.14 -1.77 -13.62 Q -1.17 -16.09 0.66 -17.52 Q 2.49 -18.95 4.70 -19.22 Q 6.90 -19.50 9.67 -19.16 Q 12.43 -18.83 12.53 -16.32 Z" fill="#A9D4A8" opacity="0.7"></path><path d="M 17.79 -7.20 Q 19.94 -5.10 17.99 -2.86 Q 16.04 -0.61 13.76 0.69 Q 11.48 2.00 8.32 2.29 Q 5.16 2.59 3.68 0.03 Q 2.20 -2.52 3.41 -4.71 Q 4.61 -6.90 5.30 -9.19 Q 5.99 -11.49 8.87 -12.53 Q 11.75 -13.57 13.69 -11.43 Q 15.64 -9.29 17.79 -7.20 Z" fill="#A9D4A8" opacity="0.7"></path><path d="M 19.39 1.49 Q 19.74 3.32 19.28 5.07 Q 18.83 6.81 16.97 7.41 Q 15.12 8.01 12.30 9.35 Q 9.47 10.69 9.41 7.80 Q 9.34 4.91 9.16 3.26 Q 8.98 1.61 10.31 0.47 Q 11.65 -0.66 13.76 -2.92 Q 15.86 -5.17 17.46 -2.76 Q 19.05 -0.34 19.39 1.49 Z" fill="#A9D4A8" opacity="0.7"></path>
      <path d="M -10.02 -13.70 Q -9.34 -12.75 -10.07 -11.84 Q -10.80 -10.94 -11.75 -10.04 Q -12.70 -9.15 -14.24 -9.49 Q -15.78 -9.82 -16.15 -11.28 Q -16.52 -12.75 -15.76 -13.84 Q -14.99 -14.92 -13.85 -15.49 Q -12.70 -16.05 -11.70 -15.35 Q -10.70 -14.65 -10.02 -13.70 Z" fill="#C7E5B8" opacity="0.82"></path><path d="M -0.93 -15.77 Q -0.35 -14.64 -0.83 -13.42 Q -1.30 -12.19 -2.59 -11.42 Q -3.88 -10.65 -5.31 -11.28 Q -6.74 -11.91 -7.34 -13.28 Q -7.93 -14.64 -7.24 -15.91 Q -6.55 -17.18 -5.22 -18.45 Q -3.88 -19.72 -2.69 -18.31 Q -1.50 -16.89 -0.93 -15.77 Z" fill="#C7E5B8" opacity="0.82"></path><path d="M 9.77 -16.46 Q 10.40 -14.61 9.64 -12.87 Q 8.88 -11.14 7.05 -10.26 Q 5.23 -9.38 3.54 -10.39 Q 1.86 -11.40 0.77 -13.01 Q -0.31 -14.61 1.17 -15.83 Q 2.65 -17.05 3.94 -18.76 Q 5.23 -20.47 7.18 -19.39 Q 9.13 -18.32 9.77 -16.46 Z" fill="#C7E5B8" opacity="0.82"></path><path d="M 15.83 -13.01 Q 16.26 -11.60 16.04 -9.99 Q 15.81 -8.38 14.12 -8.48 Q 12.43 -8.58 10.86 -8.60 Q 9.29 -8.62 8.33 -10.11 Q 7.36 -11.60 8.04 -13.36 Q 8.72 -15.12 10.57 -15.78 Q 12.43 -16.45 13.91 -15.43 Q 15.40 -14.42 15.83 -13.01 Z" fill="#C7E5B8" opacity="0.82"></path>
    </g>
    <g id="cluster-36" transform="translate(356.44 338.00)">
      <path d="M 30.72 -4.27 Q 31.94 1.73 28.95 6.78 Q 25.97 11.83 24.38 17.90 Q 22.80 23.98 15.28 24.24 Q 7.76 24.51 0.78 26.47 Q -6.19 28.42 -12.98 25.55 Q -19.76 22.68 -22.95 17.08 Q -26.14 11.47 -26.81 5.54 Q -27.47 -0.40 -25.08 -6.19 Q -22.68 -11.98 -15.61 -13.82 Q -8.53 -15.65 -2.52 -14.84 Q 3.50 -14.03 8.30 -12.64 Q 13.11 -11.24 21.30 -10.75 Q 29.49 -10.27 30.72 -4.27 Z" fill="#2F5E45" opacity="0.78"></path>
      <path d="M 27.29 9.77 Q 27.92 10.94 27.04 11.83 Q 26.15 12.72 25.00 13.27 Q 23.85 13.81 23.32 12.76 Q 22.78 11.72 22.73 10.92 Q 22.67 10.11 23.31 9.28 Q 23.94 8.45 25.30 8.53 Q 26.65 8.60 27.29 9.77 Z" fill="#2F5E45" opacity="0.55"></path><path d="M -14.73 15.17 Q -14.59 16.30 -14.96 17.16 Q -15.33 18.02 -16.49 18.72 Q -17.65 19.41 -18.41 18.35 Q -19.17 17.30 -19.23 16.27 Q -19.29 15.24 -18.53 13.98 Q -17.77 12.72 -16.31 13.38 Q -14.86 14.04 -14.73 15.17 Z" fill="#2F5E45" opacity="0.55"></path><path d="M -8.12 -18.83 Q -7.94 -17.54 -8.40 -16.55 Q -8.86 -15.57 -10.03 -15.38 Q -11.20 -15.20 -12.57 -15.64 Q -13.94 -16.09 -13.78 -17.47 Q -13.61 -18.84 -12.35 -19.15 Q -11.09 -19.45 -9.70 -19.79 Q -8.31 -20.12 -8.12 -18.83 Z" fill="#2F5E45" opacity="0.55"></path>
      <path d="M 24.70 -5.53 Q 29.04 -1.39 24.51 2.87 Q 19.97 7.13 19.20 12.44 Q 18.42 17.75 12.72 19.36 Q 7.01 20.97 1.53 20.46 Q -3.96 19.96 -7.63 16.83 Q -11.31 13.69 -17.01 12.24 Q -22.71 10.78 -21.38 5.87 Q -20.05 0.96 -22.66 -4.03 Q -25.28 -9.02 -19.97 -11.57 Q -14.66 -14.12 -10.55 -16.68 Q -6.43 -19.24 -1.41 -18.73 Q 3.61 -18.22 8.72 -17.48 Q 13.83 -16.74 17.10 -13.20 Q 20.36 -9.67 24.70 -5.53 Z" fill="#519E73" opacity="0.94"></path>
      <path d="M -3.98 -6.28 Q -3.18 -3.44 -4.88 -1.28 Q -6.58 0.87 -8.83 1.80 Q -11.09 2.72 -13.02 1.71 Q -14.96 0.70 -18.26 0.15 Q -21.56 -0.41 -19.64 -2.81 Q -17.72 -5.22 -16.83 -7.17 Q -15.94 -9.13 -13.61 -8.89 Q -11.28 -8.64 -8.03 -8.88 Q -4.78 -9.12 -3.98 -6.28 Z" fill="#7BC68C" opacity="0.7"></path><path d="M 0.99 -10.21 Q 1.30 -8.05 1.04 -5.85 Q 0.78 -3.65 -1.74 -3.83 Q -4.25 -4.01 -6.42 -3.26 Q -8.59 -2.52 -9.35 -4.45 Q -10.11 -6.39 -10.59 -8.20 Q -11.06 -10.02 -10.09 -12.21 Q -9.12 -14.40 -6.69 -13.24 Q -4.25 -12.08 -1.79 -12.22 Q 0.67 -12.36 0.99 -10.21 Z" fill="#7BC68C" opacity="0.7"></path><path d="M 7.28 -10.82 Q 7.41 -9.57 6.88 -8.63 Q 6.34 -7.68 5.49 -6.63 Q 4.63 -5.58 3.28 -6.07 Q 1.92 -6.56 0.97 -7.44 Q 0.02 -8.31 0.13 -9.53 Q 0.24 -10.75 0.88 -11.98 Q 1.51 -13.21 2.98 -12.94 Q 4.46 -12.67 5.81 -12.37 Q 7.16 -12.06 7.28 -10.82 Z" fill="#7BC68C" opacity="0.7"></path><path d="M 12.66 -5.51 Q 13.56 -4.10 12.55 -2.78 Q 11.53 -1.46 10.39 0.35 Q 9.26 2.16 6.88 1.78 Q 4.50 1.40 2.71 -0.19 Q 0.93 -1.78 0.94 -4.10 Q 0.95 -6.42 2.81 -7.88 Q 4.67 -9.33 6.91 -9.58 Q 9.15 -9.82 10.45 -8.37 Q 11.76 -6.92 12.66 -5.51 Z" fill="#7BC68C" opacity="0.7"></path><path d="M 12.26 0.13 Q 13.63 1.23 12.38 2.41 Q 11.12 3.59 9.98 4.61 Q 8.85 5.63 7.02 5.60 Q 5.19 5.58 4.22 4.18 Q 3.26 2.77 2.78 1.07 Q 2.30 -0.64 3.66 -2.02 Q 5.01 -3.41 6.82 -2.72 Q 8.62 -2.02 9.75 -1.49 Q 10.89 -0.96 12.26 0.13 Z" fill="#7BC68C" opacity="0.7"></path>
      <path d="M -7.78 -11.42 Q -6.73 -10.55 -7.48 -9.39 Q -8.24 -8.24 -9.46 -8.16 Q -10.67 -8.08 -11.70 -8.34 Q -12.72 -8.60 -13.54 -9.57 Q -14.36 -10.55 -13.49 -11.48 Q -12.63 -12.41 -11.65 -13.04 Q -10.67 -13.68 -9.75 -12.99 Q -8.84 -12.29 -7.78 -11.42 Z" fill="#A9D4A8" opacity="0.82"></path><path d="M -0.88 -13.95 Q -0.84 -12.72 -1.13 -11.73 Q -1.43 -10.74 -2.47 -10.64 Q -3.51 -10.53 -4.33 -10.85 Q -5.14 -11.17 -5.67 -11.95 Q -6.19 -12.72 -5.75 -13.58 Q -5.31 -14.43 -4.41 -14.70 Q -3.51 -14.96 -2.22 -15.07 Q -0.93 -15.17 -0.88 -13.95 Z" fill="#A9D4A8" opacity="0.82"></path><path d="M 7.48 -12.51 Q 7.77 -10.81 7.17 -9.41 Q 6.58 -8.01 5.10 -7.56 Q 3.62 -7.12 2.50 -7.89 Q 1.37 -8.67 0.86 -9.74 Q 0.36 -10.81 0.27 -12.45 Q 0.17 -14.09 1.90 -13.99 Q 3.62 -13.90 5.41 -14.05 Q 7.20 -14.21 7.48 -12.51 Z" fill="#A9D4A8" opacity="0.82"></path><path d="M 12.69 -10.46 Q 13.10 -9.37 12.54 -8.42 Q 11.98 -7.47 10.98 -7.17 Q 9.98 -6.87 9.14 -7.32 Q 8.30 -7.77 7.92 -8.57 Q 7.54 -9.37 7.97 -10.13 Q 8.39 -10.88 9.18 -11.38 Q 9.98 -11.87 11.14 -11.72 Q 12.29 -11.56 12.69 -10.46 Z" fill="#A9D4A8" opacity="0.82"></path>
    </g></g>
</svg>